PathFileType	4	(X/Y/Z)	c:/Users/goper/Files/vsCode/490R/osim_files/C03/C03_Slow_05.trc
DataRate	CameraRate	NumFrames	NumMarkers	Units                	OrigDataRate	OrigDataStartFrame	OrigNumFrames
250.00	250.00	4	36	mm	250.0	1113	2966
                Frame#	Time	LPSIS			LASIS			LTH1			LTH2			LTH3			LTH4			LLFE			LMFE			LSH1			LSH2			LSH3			LSH4			LLMAL			LMMAL			LCAL			LMTP5			LTOE			LMTP1			RPSIS			RASIS			RTH1			RTH2			RTH3			RTH4			RLFE			RMFE			RSH1			RSH2			RSH3			RSH4			RLMAL			RMMAL			RCAL			RMTP1			RTOE			RMTP5		
		X1	Y1	Z1	X2	Y2	Z2	X3	Y3	Z3	X4	Y4	Z4	X5	Y5	Z5	X6	Y6	Z6	X7	Y7	Z7	X8	Y8	Z8	X9	Y9	Z9	X10	Y10	Z10	X11	Y11	Z11	X12	Y12	Z12	X13	Y13	Z13	X14	Y14	Z14	X15	Y15	Z15	X16	Y16	Z16	X17	Y17	Z17	X18	Y18	Z18	X19	Y19	Z19	X20	Y20	Z20	X21	Y21	Z21	X22	Y22	Z22	X23	Y23	Z23	X24	Y24	Z24	X25	Y25	Z25	X26	Y26	Z26	X27	Y27	Z27	X28	Y28	Z28	X29	Y29	Z29	X30	Y30	Z30	X31	Y31	Z31	X32	Y32	Z32	X33	Y33	Z33	X34	Y34	Z34	X35	Y35	Z35	X36	Y36	Z36

1113	4.44800	1453.04028	1042.37708	334.83948	1266.08618	987.82709	370.18195	1386.83325	634.54181	409.43875	1384.38977	573.50671	398.70245	1313.83569	634.71112	397.17078	1320.63940	574.33771	387.25388	1369.25220	489.62872	382.37537	1383.57043	489.84671	270.28674	1435.66846	305.15775	383.00824	1433.33899	260.87711	376.24396	1376.30554	310.02631	385.22159	1381.35278	262.37363	378.87418	1394.08154	103.75803	341.52261	1381.96570	117.26089	263.39487	1461.76660	68.78942	314.12991	1256.84998	55.24446	349.03830	1231.38257	71.45755	293.01624	1257.70093	59.77151	255.32976	1450.06360	1031.02063	221.85385	1276.93030	992.28699	166.01042	1267.91089	614.93433	151.08760	1242.42419	559.14447	162.50307	1220.24072	636.08185	113.17773	1186.05518	584.11621	117.54801	1173.14270	517.54712	129.26282	1153.52893	531.31354	243.45009	1353.00879	428.48743	146.32542	1378.02332	388.76199	147.70932	1310.69348	387.63834	121.76625	1343.06580	358.27859	126.36273	1444.66541	243.46428	153.31474	1419.70703	224.90677	227.50162	1512.75415	257.69653	204.69905	0.00000	0.00000	0.00000	1349.79517	102.38947	166.85928	1415.24561	121.21876	113.14799
1114	4.45200	1448.83447	1042.34692	334.20447	1262.05798	988.01410	370.43262	1385.84998	635.59949	409.87292	1381.74377	573.70502	398.41818	1311.06787	634.80750	397.05997	1318.01917	574.41064	387.14648	1367.06775	489.72781	381.99121	1381.06165	490.09225	269.99686	1436.33154	306.67010	383.63412	1432.25159	261.33786	376.01343	1373.97571	310.10938	385.01483	1380.45215	262.57288	378.74106	1393.82312	103.97662	341.36749	1381.69763	117.36379	263.18533	1461.64819	68.88219	314.07672	1256.73962	55.16142	348.97397	1231.28735	71.30521	292.99774	1257.62195	59.84799	255.30548	1445.38000	1031.10364	221.22336	1272.21375	992.60468	166.20262	1260.94360	615.86890	150.65201	1235.02161	560.24976	162.17099	1213.11182	637.42316	113.14571	1178.51941	585.75684	117.71648	1165.37866	519.24457	129.46320	1146.28040	533.29608	243.97078	1342.32336	426.49734	147.50371	1368.01672	386.67572	147.87003	1301.30481	386.96960	121.54230	1332.90393	357.51291	126.31768	1431.99243	239.92978	153.38817	1406.39343	221.71744	227.37787	1500.37158	252.46768	204.88101	0.00000	0.00000	0.00000	1333.95801	101.33022	165.99963	1401.73438	117.78133	111.39025
1115	4.45600	1444.63037	1042.37964	333.53128	1260.84119	987.63428	371.02042	1383.14331	635.93347	409.52094	1379.20508	574.03351	398.14481	1308.30737	634.80011	396.83069	1315.58228	574.49408	386.98178	1364.72351	489.71576	381.81921	1378.55774	490.29816	269.72134	1435.00806	307.17117	383.38284	1430.97656	261.09357	375.77853	1372.88025	310.41492	384.89667	0.00000	0.00000	0.00000	1393.48328	103.53350	341.20905	1381.50208	117.51435	263.01508	1463.80127	70.33798	315.02509	1256.74158	55.15897	349.06009	1230.97742	71.43025	292.69019	1257.52747	59.76958	255.26199	1440.70349	1031.24963	220.54855	1267.36255	992.81396	166.38136	1254.01624	616.72327	150.14856	1227.81567	561.32434	161.82532	1206.03711	638.79712	113.13777	1171.11731	587.35461	117.88209	1157.64990	520.85565	129.99918	1140.69238	534.71234	244.51041	1333.76794	425.16412	147.08559	1358.07678	384.55011	148.08403	1292.01245	385.88406	122.02586	1322.40710	356.09238	126.51099	1419.21460	236.35754	153.42522	1393.17493	218.68535	227.27954	1488.42407	247.47316	204.84761	0.00000	0.00000	0.00000	1317.31482	100.02251	164.84343	1386.00562	115.15876	111.00539
1116	4.46000	1440.46228	1042.42017	332.85403	1253.70056	987.91827	370.81793	1378.77100	635.49133	408.49948	1376.92493	574.39874	397.90250	1305.64514	634.85297	396.75204	1313.07471	574.50818	386.85324	1362.61658	490.05325	381.45044	1376.04907	490.41531	269.49799	1431.67297	306.54562	382.26483	1428.12671	260.58813	374.77945	1371.96252	310.66635	384.39240	0.00000	0.00000	0.00000	1392.91675	103.27174	340.91971	1381.28796	117.62185	262.83377	1461.58154	69.23975	313.95184	1256.68689	55.09192	349.05420	1231.04419	70.99390	292.88556	1257.43713	59.71152	255.28825	1436.08508	1031.42493	219.85681	1262.55151	993.15436	166.47102	1247.16882	617.51831	149.68507	1220.70203	562.32745	161.41920	1199.06799	640.14923	113.06964	1163.70740	588.89850	118.05381	1150.03088	522.39648	130.39807	1132.06384	536.88477	244.66451	1324.64844	423.34827	147.30179	1347.24890	380.84515	146.91972	1281.55029	384.72815	122.76393	1311.26697	354.35498	127.09092	1405.29297	230.72104	152.15840	1379.77991	215.43002	227.12024	1475.68945	241.00803	204.79648	0.00000	0.00000	0.00000	1302.02222	98.95191	164.15891	1370.91064	112.63611	109.90156
